<svg width="2400" height="489" viewBox="0 0 2400 489" fill="none" xmlns="http://www.w3.org/2000/svg">
<path d="M195.007 384.665V476.076L102.377 418.792V335.912L195.007 384.665ZM302.264 428.542L209.634 476.076V384.665L302.264 338.35V428.542ZM195.007 368.82L112.127 323.724L195.007 282.283V368.82ZM302.264 321.286L209.634 367.602V277.408L302.264 231.093V321.286ZM91.4111 220.123V312.754L0 262.782V171.37L91.4111 220.123ZM195.007 267.657L104.814 311.535V221.343L195.007 176.246V267.657ZM301.046 214.029L209.635 259.126V170.151L301.046 125.056V214.029ZM186.475 164.058L98.7197 207.936L10.9639 160.401L98.7197 116.523L186.475 164.058ZM404.646 162.839L313.234 206.717V120.18L404.646 73.8643V162.839ZM288.855 114.086L202.319 157.964L113.346 109.211L199.882 65.333L288.855 114.086ZM392.459 61.6768L305.923 106.772L216.949 58.0195L304.704 12.9238L392.459 61.6768Z" fill="#EEF0F3"/>
<path d="M606.949 376.5C594.462 376.5 584.269 372.678 576.37 365.033C568.725 357.133 564.903 346.686 564.903 333.69V226.663H517.506V186.911H564.903V128.047H613.065V186.911H665.049V226.663H613.065V325.28C613.065 332.925 616.632 336.747 623.767 336.747H660.462V376.5H606.949ZM767.509 381.851C754.003 381.851 741.899 379.558 731.196 374.971C720.494 370.129 711.957 363.249 705.587 354.33C699.471 345.157 696.413 334.072 696.413 321.076C696.413 308.08 699.471 297.25 705.587 288.586C711.957 279.667 720.621 273.041 731.579 268.709C742.791 264.123 755.532 261.829 769.802 261.829H821.786V251.127C821.786 242.208 818.983 234.945 813.377 229.339C807.771 223.478 798.852 220.548 786.621 220.548C774.644 220.548 765.725 223.351 759.864 228.957C754.003 234.308 750.181 241.316 748.397 249.98L704.058 235.073C707.116 225.389 711.957 216.598 718.583 208.698C725.463 200.544 734.509 194.046 745.721 189.204C757.188 184.108 771.076 181.56 787.385 181.56C812.358 181.56 832.107 187.803 846.632 200.289C861.157 212.776 868.419 230.868 868.419 254.567V325.28C868.419 332.925 871.987 336.747 879.122 336.747H894.411V376.5H862.303C852.875 376.5 845.103 374.207 838.987 369.62C832.871 365.033 829.813 358.917 829.813 351.272V350.89H822.551C821.532 353.948 819.238 358.025 815.671 363.122C812.103 367.963 806.497 372.295 798.852 376.118C791.207 379.94 780.76 381.851 767.509 381.851ZM775.918 342.863C789.424 342.863 800.381 339.168 808.79 331.778C817.454 324.134 821.786 314.068 821.786 301.582V297.759H773.242C764.324 297.759 757.316 299.671 752.219 303.493C747.123 307.315 744.575 312.667 744.575 319.547C744.575 326.427 747.25 332.033 752.602 336.365C757.953 340.697 765.725 342.863 775.918 342.863ZM1043.53 381.851C1026.46 381.851 1013.33 378.921 1004.16 373.06C994.987 367.199 988.234 360.701 983.902 353.566H977.022V376.5H929.625V108.935H977.786V208.698H984.667C987.47 204.112 991.165 199.78 995.752 195.702C1000.59 191.625 1006.84 188.312 1014.48 185.764C1022.38 182.961 1032.06 181.56 1043.53 181.56C1058.82 181.56 1072.96 185.382 1085.96 193.027C1098.96 200.417 1109.4 211.374 1117.3 225.899C1125.2 240.424 1129.15 258.007 1129.15 278.648V284.763C1129.15 305.404 1125.2 322.987 1117.3 337.512C1109.4 352.037 1098.96 363.122 1085.96 370.766C1072.96 378.156 1058.82 381.851 1043.53 381.851ZM1029.01 339.805C1043.79 339.805 1056.14 335.091 1066.08 325.663C1076.02 315.979 1080.99 301.964 1080.99 283.617V279.794C1080.99 261.447 1076.02 247.559 1066.08 238.131C1056.4 228.447 1044.04 223.606 1029.01 223.606C1014.23 223.606 1001.87 228.447 991.929 238.131C981.991 247.559 977.022 261.447 977.022 279.794V283.617C977.022 301.964 981.991 315.979 991.929 325.663C1001.87 335.091 1014.23 339.805 1029.01 339.805ZM1245.62 379.558C1230.84 379.558 1217.84 376.245 1206.63 369.62C1195.67 362.74 1187.14 353.311 1181.02 341.334C1174.9 329.358 1171.85 315.597 1171.85 300.053V186.911H1220.01V296.23C1220.01 310.501 1223.45 321.203 1230.33 328.338C1237.46 335.473 1247.53 339.041 1260.52 339.041C1275.3 339.041 1286.77 334.199 1294.93 324.516C1303.08 314.578 1307.16 300.817 1307.16 283.234V186.911H1355.32V376.5H1307.92V351.655H1301.04C1297.98 358.025 1292.25 364.268 1283.84 370.384C1275.43 376.5 1262.69 379.558 1245.62 379.558ZM1408.91 376.5V108.935H1457.07V376.5H1408.91ZM1569.31 381.851C1555.8 381.851 1543.7 379.558 1533 374.971C1522.29 370.129 1513.76 363.249 1507.39 354.33C1501.27 345.157 1498.21 334.072 1498.21 321.076C1498.21 308.08 1501.27 297.25 1507.39 288.586C1513.76 279.667 1522.42 273.041 1533.38 268.709C1544.59 264.123 1557.33 261.829 1571.6 261.829H1623.59V251.127C1623.59 242.208 1620.78 234.945 1615.18 229.339C1609.57 223.478 1600.65 220.548 1588.42 220.548C1576.44 220.548 1567.52 223.351 1561.66 228.957C1555.8 234.308 1551.98 241.316 1550.2 249.98L1505.86 235.073C1508.92 225.389 1513.76 216.598 1520.38 208.698C1527.26 200.544 1536.31 194.046 1547.52 189.204C1558.99 184.108 1572.88 181.56 1589.18 181.56C1614.16 181.56 1633.91 187.803 1648.43 200.289C1662.96 212.776 1670.22 230.868 1670.22 254.567V325.28C1670.22 332.925 1673.79 336.747 1680.92 336.747H1696.21V376.5H1664.1C1654.67 376.5 1646.9 374.207 1640.79 369.62C1634.67 365.033 1631.61 358.917 1631.61 351.272V350.89H1624.35C1623.33 353.948 1621.04 358.025 1617.47 363.122C1613.9 367.963 1608.3 372.295 1600.65 376.118C1593.01 379.94 1582.56 381.851 1569.31 381.851ZM1577.72 342.863C1591.22 342.863 1602.18 339.168 1610.59 331.778C1619.25 324.134 1623.59 314.068 1623.59 301.582V297.759H1575.04C1566.12 297.759 1559.12 299.671 1554.02 303.493C1548.92 307.315 1546.37 312.667 1546.37 319.547C1546.37 326.427 1549.05 332.033 1554.4 336.365C1559.75 340.697 1567.52 342.863 1577.72 342.863ZM1731.42 376.5V186.911H1778.82V208.316H1785.7C1788.51 200.671 1793.09 195.065 1799.46 191.498C1806.09 187.93 1813.73 186.146 1822.4 186.146H1845.33V228.957H1821.63C1809.4 228.957 1799.34 232.27 1791.44 238.895C1783.54 245.266 1779.59 255.204 1779.59 268.709V376.5H1731.42ZM1882.98 376.5V186.911H1931.14V376.5H1882.98ZM1907.06 164.741C1898.39 164.741 1891 161.938 1884.89 156.332C1879.03 150.726 1876.09 143.336 1876.09 134.162C1876.09 124.989 1879.03 117.599 1884.89 111.993C1891 106.387 1898.39 103.583 1907.06 103.583C1915.97 103.583 1923.36 106.387 1929.23 111.993C1935.09 117.599 1938.02 124.989 1938.02 134.162C1938.02 143.336 1935.09 150.726 1929.23 156.332C1923.36 161.938 1915.97 164.741 1907.06 164.741ZM2063.25 381.851C2038.53 381.851 2018.27 376.5 2002.47 365.797C1986.67 355.095 1977.12 339.805 1973.8 319.929L2018.14 308.462C2019.93 317.381 2022.86 324.388 2026.93 329.485C2031.27 334.581 2036.49 338.276 2042.61 340.57C2048.98 342.608 2055.86 343.628 2063.25 343.628C2074.46 343.628 2082.74 341.717 2088.09 337.894C2093.44 333.817 2096.12 328.848 2096.12 322.987C2096.12 317.126 2093.57 312.667 2088.47 309.609C2083.38 306.296 2075.22 303.62 2064.01 301.582L2053.31 299.671C2040.06 297.122 2027.95 293.682 2017 289.35C2006.04 284.763 1997.25 278.52 1990.62 270.621C1984 262.721 1980.68 252.528 1980.68 240.042C1980.68 221.185 1987.56 206.787 2001.33 196.849C2015.09 186.656 2033.18 181.56 2055.6 181.56C2076.75 181.56 2094.34 186.274 2108.35 195.702C2122.37 205.131 2131.54 217.49 2135.87 232.779L2091.15 246.54C2089.11 236.856 2084.91 229.976 2078.54 225.899C2072.42 221.822 2064.78 219.783 2055.6 219.783C2046.43 219.783 2039.42 221.44 2034.58 224.752C2029.74 227.81 2027.32 232.142 2027.32 237.748C2027.32 243.864 2029.87 248.451 2034.96 251.509C2040.06 254.312 2046.94 256.478 2055.6 258.007L2066.31 259.918C2080.58 262.466 2093.44 265.906 2104.91 270.238C2116.63 274.316 2125.81 280.304 2132.43 288.203C2139.31 295.848 2142.75 306.296 2142.75 319.547C2142.75 339.423 2135.49 354.84 2120.96 365.797C2106.69 376.5 2087.46 381.851 2063.25 381.851Z" fill="#EEF0F3"/>
<path d="M2212.7 367.288V323.713H2400V367.288H2212.7Z" fill="#EEF0F3"/>
</svg>
