<svg width="512" height="512" viewBox="-4.355 0 37 37" fill="none" xmlns="http://www.w3.org/2000/svg" role="img" aria-label="Tolgee">
<path d="M13.5797 0.731472C13.1594 1.07536 12.8317 1.51809 12.6262 2.0197C12.4208 2.5213 12.344 3.06598 12.4029 3.60453C12.4618 4.14308 12.6544 4.65854 12.9635 5.10436C13.2725 5.55019 13.6882 5.91233 14.173 6.15808C14.2904 6.2464 14.3729 6.37307 14.4059 6.51588C14.4389 6.65869 14.4203 6.8085 14.3534 6.93905C14.2866 7.06959 14.1757 7.17252 14.0403 7.22977C13.9048 7.28703 13.7534 7.29495 13.6127 7.25215C12.5856 6.73271 11.7988 5.83943 11.4154 4.75766C9.02761 5.34745 6.83526 6.54654 5.05437 8.23682C-0.219057 12.8866 -1.53741 20.0528 1.91228 24.5604C1.03562 25.5825 0.444538 26.8164 0.198422 28.138C0.0936907 28.7597 0.138674 29.3974 0.32967 29.9984C0.520665 30.5994 0.852216 31.1467 1.29705 31.5953C3.06585 33.4333 5.41692 32.9519 7.30656 32.5799C8.56999 32.3174 9.76749 32.0767 10.4816 32.5799C11.1957 33.0832 11.1518 33.313 11.1737 33.4333C11.5802 35.2167 10.0751 36.0919 9.70157 36.5405C9.66891 36.5821 9.64854 36.632 9.64275 36.6846C9.63696 36.7371 9.64598 36.7902 9.66879 36.8379C9.6916 36.8856 9.72731 36.926 9.77191 36.9547C9.81651 36.9833 9.86824 36.999 9.9213 37C10.7699 36.9858 11.5911 36.6979 12.2614 36.1794C12.7069 35.8019 13.0434 35.3131 13.2365 34.7632C13.4296 34.2133 13.4722 33.6221 13.36 33.0504L13.2941 32.755C13.043 31.855 12.4473 31.0889 11.6352 30.6216C10.152 29.6806 8.33927 30.0417 6.7902 30.359C4.91155 30.731 3.71404 30.906 2.87908 30.0308C2.69344 29.8302 2.55711 29.5894 2.48085 29.3274C2.40459 29.0654 2.39048 28.7893 2.43963 28.5209C2.61988 27.6865 2.9964 26.9066 3.53826 26.2453C7.71305 29.5275 14.5246 28.8273 19.4354 24.451C21.1874 22.9813 22.5684 21.1226 23.4674 19.0244C22.8665 18.8008 22.3219 18.4489 21.8721 17.9934C21.4223 17.5379 21.0781 16.9898 20.8637 16.3877C20.8362 16.3115 20.8242 16.2307 20.8281 16.1499C20.832 16.0691 20.8519 15.9899 20.8866 15.9168C20.9213 15.8436 20.9701 15.778 21.0303 15.7236C21.0904 15.6693 21.1607 15.6272 21.2372 15.5999C21.3137 15.5726 21.3948 15.5606 21.4759 15.5645C21.557 15.5684 21.6366 15.5882 21.7101 15.6228C21.7835 15.6573 21.8494 15.7059 21.904 15.7658C21.9586 15.8257 22.0008 15.8958 22.0282 15.9719C22.1682 16.3494 22.3768 16.698 22.6434 17.0003C23.0089 17.4108 23.4734 17.7217 23.993 17.9036C24.5127 18.0856 25.0703 18.1327 25.6133 18.0405C26.1563 17.9482 26.6667 17.7197 27.0964 17.3764C27.5261 17.0331 27.8608 16.5865 28.0689 16.0786C28.2771 15.5707 28.3518 15.0184 28.2861 14.4738C28.2203 13.9291 28.0163 13.4102 27.6932 12.9659C27.3701 12.5216 26.9387 12.1666 26.4396 11.9345C25.9405 11.7024 25.3902 11.6009 24.8407 11.6394C24.6817 11.6458 24.5262 11.5917 24.4058 11.4881C24.2854 11.3844 24.2091 11.239 24.1925 11.0814C24.1834 11.0009 24.1904 10.9193 24.2131 10.8415C24.2358 10.7637 24.2739 10.6911 24.325 10.628C24.376 10.5649 24.4392 10.5126 24.5108 10.474C24.5823 10.4353 24.6609 10.4113 24.7418 10.4031C25.6017 10.336 26.463 10.5144 27.2247 10.9173C27.7191 8.22588 27.8619 4.89989 26.8292 3.74017C26.0382 2.85397 22.8632 2.19753 20.0617 2.25224C20.1936 2.87262 20.1936 3.51365 20.0617 4.13404C20.0274 4.29174 19.932 4.4296 19.7962 4.51769C19.6604 4.60577 19.4953 4.63696 19.3366 4.60449C19.2566 4.59137 19.1801 4.56237 19.1117 4.51921C19.0432 4.47606 18.9841 4.41963 18.938 4.35328C18.8919 4.28693 18.8596 4.21202 18.8432 4.13301C18.8267 4.05399 18.8264 3.97249 18.8422 3.89335C18.9752 3.23659 18.9012 2.55493 18.6303 1.94165C18.3594 1.32837 17.9049 0.813444 17.3288 0.467328C16.7527 0.121212 16.0834 -0.0391765 15.4123 0.00810692C14.7412 0.0553904 14.1011 0.308035 13.5797 0.731472ZM25.7416 4.75766C25.8481 4.94179 25.8947 5.15425 25.875 5.36583C25.8554 5.57742 25.7704 5.77774 25.6317 5.93926C25.379 6.15808 25.1044 5.8408 24.8407 5.5454C24.577 5.25 24.2474 4.88895 24.4891 4.67014C24.6819 4.55557 24.9052 4.50254 25.1292 4.51818C25.3531 4.53383 25.5668 4.61741 25.7416 4.75766Z" fill="#EC407A"/>
</svg>
